<?xml version="1.0" encoding="UTF-8" standalone="no"?>
<!DOCTYPE svg PUBLIC "-//W3C//DTD SVG 1.1//EN" "http://www.w3.org/Graphics/SVG/1.1/DTD/svg11.dtd">
<!-- Created with Vectornator (http://vectornator.io/) -->
<svg height="46.228492751104056mm" stroke-miterlimit="10" style="fill-rule:nonzero;clip-rule:evenodd;stroke-linecap:round;stroke-linejoin:round;" version="1.1" viewBox="0 0 1676.74 131.058" width="591.4430827623343mm" xml:space="preserve" xmlns="http://www.w3.org/2000/svg" xmlns:vectornator="http://vectornator.io" xmlns:xlink="http://www.w3.org/1999/xlink">
<defs/>
<clipPath id="ArtboardFrame">
<rect height="131.058" width="1676.74" x="0" y="0"/>
</clipPath>
<g clip-path="url(#ArtboardFrame)" id="Слой-1" vectornator:layerName="Слой 1">
<path d="M4.57502 120.174L4.57502 100.831C4.57502 78.6744 22.5368 60.7126 44.6938 60.7126L1631.03 60.7126C1653.19 60.7126 1671.15 78.6744 1671.15 100.831L1671.15 127.467" fill="none" opacity="1" stroke="#777777" stroke-linecap="butt" stroke-linejoin="round" stroke-width="10"/>
<path d="M130.284 0.547855C128.686 0.547855 127.638 1.50801 126.949 2.6318L95.2716 54.316C94.8549 54.7327 94.8549 55.5661 94.8549 56.4C94.8549 59.3178 96.9389 60.1512 98.6061 60.1512L161.544 60.1512C163.628 60.1512 165.295 59.3178 165.295 56.4C165.295 55.5666 165.295 55.1494 164.879 54.316L146.652 24.1817L133.618 2.6318C132.936 1.50422 131.637 0.547855 130.284 0.547855Z" fill="#777777" fill-rule="nonzero" opacity="1" stroke="none" vectornator:layerName="path"/>
</g>
</svg>
